<svg xmlns="http://www.w3.org/2000/svg" xmlns:xlink="http://www.w3.org/1999/xlink" width="512" zoomAndPan="magnify" viewBox="0 0 384 383.999986" height="512" preserveAspectRatio="xMidYMid meet" version="1.0"><defs><clipPath id="b3cac25441"><path d="M 192 0 C 85.960938 0 0 85.960938 0 192 C 0 298.039062 85.960938 384 192 384 C 298.039062 384 384 298.039062 384 192 C 384 85.960938 298.039062 0 192 0 Z M 192 0 " clip-rule="nonzero"/></clipPath><clipPath id="147926df45"><path d="M 16.027344 16.027344 L 367.777344 16.027344 L 367.777344 367.777344 L 16.027344 367.777344 Z M 16.027344 16.027344 " clip-rule="nonzero"/></clipPath></defs><g clip-path="url(#b3cac25441)"><rect x="-38.4" width="460.8" fill="#faf9f4" y="-38.399999" height="460.799983" fill-opacity="1"/></g><g clip-path="url(#147926df45)"><path fill="#6d4c3d" d="M 367.964844 192.050781 C 194.722656 193.5 193.5 194.722656 192.050781 367.964844 C 190.496094 194.722656 189.269531 193.5 16.027344 192.050781 C 189.269531 190.496094 190.496094 189.269531 192.050781 16.027344 C 193.5 189.269531 194.722656 190.496094 367.964844 192.050781 Z M 367.964844 192.050781 " fill-opacity="1" fill-rule="nonzero"/></g></svg>